<svg xmlns="http://www.w3.org/2000/svg" xmlns:xlink="http://www.w3.org/1999/xlink" width="500" zoomAndPan="magnify" viewBox="0 0 375 374.999991" height="500" preserveAspectRatio="xMidYMid meet" version="1.0"><defs><clipPath id="1aa35d2324"><path d="M 134 112 L 240.976562 112 L 240.976562 215 L 134 215 Z M 134 112 " clip-rule="nonzero"/></clipPath></defs><path fill="#1c486f" d="M 164.632812 106.628906 C 166.613281 106.628906 168.222656 105.023438 168.222656 103.042969 L 168.222656 96.089844 C 168.222656 87.101562 175.542969 79.78125 184.558594 79.78125 C 193.578125 79.78125 200.898438 87.101562 200.898438 96.089844 L 200.898438 103.042969 C 200.898438 105.023438 202.507812 106.628906 204.488281 106.628906 C 206.472656 106.628906 208.078125 105.023438 208.078125 103.042969 L 208.078125 97.066406 C 208.078125 84.519531 198.660156 73.492188 186.109375 72.660156 C 172.472656 71.769531 161.042969 82.625 161.042969 96.089844 L 161.042969 103.042969 C 161.042969 105.023438 162.648438 106.628906 164.632812 106.628906 Z M 164.632812 106.628906 " fill-opacity="1" fill-rule="nonzero"/><g clip-path="url(#1aa35d2324)"><path fill="#f5a45e" d="M 240.128906 199.960938 L 232.230469 123.144531 C 231.597656 117.027344 226.457031 112.402344 220.3125 112.402344 L 148.808594 112.402344 C 142.664062 112.402344 137.523438 117.054688 136.890625 123.144531 L 134.910156 142.269531 C 133.589844 155.105469 145.792969 165.125 158.113281 161.363281 L 164.804688 159.324219 C 172.414062 157 180.914062 160.847656 183.898438 169.289062 C 184.933594 172.21875 184.789062 175.4375 183.871094 178.421875 L 180.914062 188.070312 C 176.835938 201.394531 186.800781 214.863281 200.726562 214.863281 L 226.6875 214.863281 C 234.699219 214.835938 240.960938 207.914062 240.128906 199.960938 Z M 240.128906 199.960938 " fill-opacity="1" fill-rule="nonzero"/></g><path fill="#1c486f" d="M 167.332031 167.539062 L 128.648438 179.339844 C 123.019531 181.0625 122.617188 188.875 128.046875 191.171875 L 137.265625 195.050781 C 142.144531 197.117188 146.050781 200.992188 148.117188 205.902344 L 151.996094 215.121094 C 154.292969 220.550781 162.105469 220.148438 163.828125 214.519531 L 175.628906 175.835938 C 177.210938 170.753906 172.441406 165.988281 167.332031 167.539062 Z M 167.332031 167.539062 " fill-opacity="1" fill-rule="nonzero"/></svg>